<svg xmlns="http://www.w3.org/2000/svg" xmlns:xlink="http://www.w3.org/1999/xlink" width="500" zoomAndPan="magnify" viewBox="0 0 375 374.999991" height="500" preserveAspectRatio="xMidYMid meet" version="1.0"><defs><g/><clipPath id="925856124e"><path d="M 175.507812 164 L 228 164 L 228 172 L 175.507812 172 Z M 175.507812 164 " clip-rule="nonzero"/></clipPath><clipPath id="928ddb288b"><path d="M 198 141.179688 L 269 141.179688 L 269 172.632812 L 198 172.632812 Z M 198 141.179688 " clip-rule="nonzero"/></clipPath></defs><g fill="#ffffff" fill-opacity="1"><g transform="translate(15.497645, 214.038764)"><g><path d="M 0.695312 0 L 13.855469 0 L 17.496094 -9.367188 L 39.015625 -9.367188 L 42.65625 0 L 55.816406 0 L 34.292969 -54.191406 L 22.21875 -54.191406 Z M 20.667969 -19.042969 L 28.257812 -38.863281 L 35.921875 -19.042969 Z M 20.667969 -19.042969 "/></g></g></g><g fill="#ffffff" fill-opacity="1"><g transform="translate(63.719673, 214.038764)"><g><path d="M 23.6875 1.082031 C 28.722656 1.082031 33.132812 -0.464844 36.617188 -3.175781 L 36.617188 15.484375 L 48.382812 15.484375 L 48.382812 -40.644531 L 39.636719 -40.644531 L 38.320312 -35.996094 C 34.683594 -39.636719 29.574219 -41.726562 23.6875 -41.726562 C 11.613281 -41.726562 3.019531 -32.824219 3.019531 -20.359375 C 3.019531 -7.742188 11.613281 1.082031 23.6875 1.082031 Z M 14.632812 -20.359375 C 14.632812 -26.941406 19.199219 -31.664062 25.855469 -31.664062 C 32.4375 -31.664062 37.003906 -26.941406 37.003906 -20.359375 C 37.003906 -13.703125 32.4375 -9.058594 25.855469 -9.058594 C 19.199219 -9.058594 14.632812 -13.703125 14.632812 -20.359375 Z M 14.632812 -20.359375 "/></g></g></g><g fill="#ffffff" fill-opacity="1"><g transform="translate(109.696961, 214.038764)"><g><path d="M 22.0625 1.082031 C 27.40625 1.082031 32.203125 -0.773438 35.457031 -4.566406 L 36.695312 0 L 45.441406 0 L 45.441406 -40.644531 L 33.675781 -40.644531 L 33.675781 -19.429688 C 33.675781 -13.003906 30.191406 -9.058594 24.851562 -9.058594 C 19.894531 -9.058594 16.875 -12.542969 16.875 -18.503906 L 16.875 -40.644531 L 5.109375 -40.644531 L 5.109375 -17.339844 C 5.109375 -6.039062 11.535156 1.082031 22.0625 1.082031 Z M 22.0625 1.082031 "/></g></g></g><g fill="#ffffff" fill-opacity="1"><g transform="translate(152.732871, 214.038764)"><g><path d="M 19.429688 0.773438 C 25.46875 0.773438 30.425781 -1.160156 33.90625 -4.722656 L 35.222656 0 L 43.972656 0 L 43.972656 -24.464844 C 43.972656 -35.222656 36.695312 -41.726562 24.539062 -41.726562 C 14.167969 -41.726562 7.355469 -36.773438 5.882812 -27.945312 L 17.1875 -27.945312 C 17.882812 -30.8125 20.824219 -32.746094 24.617188 -32.746094 C 29.261719 -32.746094 32.4375 -30.113281 32.4375 -26.089844 L 32.4375 -24.230469 L 17.726562 -24.230469 C 9.289062 -24.230469 3.871094 -19.355469 3.871094 -11.84375 C 3.871094 -4.027344 9.832031 0.773438 19.429688 0.773438 Z M 15.484375 -12.308594 C 15.484375 -15.097656 17.804688 -16.875 21.367188 -16.875 L 32.515625 -16.875 C 32.28125 -11.378906 28.023438 -7.664062 22.140625 -7.664062 C 18.113281 -7.664062 15.484375 -9.523438 15.484375 -12.308594 Z M 15.484375 -12.308594 "/></g></g></g><g clip-path="url(#925856124e)"><path fill="#2ea5e4" d="M 227.066406 167.996094 C 217.890625 165.953125 209.859375 168.453125 200.980469 170.378906 C 192.242188 172.277344 183.707031 171.183594 175.507812 167.625 C 184.683594 169.671875 192.714844 167.167969 201.59375 165.242188 C 210.332031 163.347656 218.867188 164.4375 227.066406 167.996094 " fill-opacity="1" fill-rule="nonzero"/></g><path fill="#2ea5e4" d="M 188.203125 163.003906 C 196.449219 153.796875 209.628906 148.234375 221.628906 152.40625 C 227.460938 154.429688 232.914062 157.722656 239.066406 158.730469 C 245.726562 159.820312 251.835938 157.371094 257.425781 153.9375 L 257.699219 154.261719 C 253.730469 158.691406 248.492188 162.035156 242.507812 162.75 C 235.957031 163.527344 229.742188 161.097656 223.730469 158.828125 C 218.324219 156.785156 213.445312 155.507812 207.632812 156.582031 C 200.957031 157.816406 194.636719 160.613281 188.460938 163.347656 L 188.203125 163.003906 " fill-opacity="1" fill-rule="nonzero"/><g clip-path="url(#928ddb288b)"><path fill="#2ea5e4" d="M 198.988281 162.855469 C 204.566406 158.605469 213.699219 159.59375 219.972656 160.84375 C 224.503906 161.75 228.746094 163.398438 233.15625 164.71875 C 239.949219 166.738281 247.644531 166.386719 253.964844 162.996094 C 256.898438 161.425781 259.425781 159.160156 260.675781 156.003906 C 262.5625 151.246094 261.148438 146.265625 260.296875 141.46875 L 260.644531 141.222656 C 266.675781 145.058594 269.894531 152.804688 267.683594 159.71875 C 265.183594 167.539062 257.132812 171.765625 249.34375 172.101562 C 237.761719 172.601562 228.683594 165.558594 218.007812 162.589844 C 212.488281 161.054688 204.457031 159.738281 199.257812 163.1875 L 198.988281 162.855469 " fill-opacity="1" fill-rule="nonzero"/></g><g fill="#95daff" fill-opacity="1"><g transform="translate(181.151037, 214.038764)"><g><path d="M 19.507812 0 L 31.816406 0 L 31.816406 -42.65625 L 49.003906 -42.65625 L 49.003906 -54.191406 L 2.324219 -54.191406 L 2.324219 -42.65625 L 19.507812 -42.65625 Z M 19.507812 0 "/></g></g></g><g fill="#95daff" fill-opacity="1"><g transform="translate(224.264368, 214.038764)"><g><path d="M 25.082031 1.082031 C 35.070312 1.082031 42.964844 -4.027344 46.527344 -12.617188 L 34.605469 -12.617188 C 32.667969 -9.910156 29.183594 -8.359375 25.316406 -8.359375 C 19.972656 -8.359375 15.792969 -11.378906 14.707031 -16.953125 L 47.300781 -16.953125 C 47.996094 -31.816406 39.171875 -41.726562 25.238281 -41.726562 C 12.078125 -41.726562 3.019531 -32.980469 3.019531 -20.359375 C 3.019531 -7.664062 12 1.082031 25.082031 1.082031 Z M 14.785156 -24.386719 C 16.101562 -29.339844 20.128906 -32.359375 25.316406 -32.359375 C 30.734375 -32.359375 34.605469 -29.339844 35.921875 -24.386719 Z M 14.785156 -24.386719 "/></g></g></g><g fill="#95daff" fill-opacity="1"><g transform="translate(266.294038, 214.038764)"><g><path d="M 25.238281 1.082031 C 36.695312 1.082031 45.289062 -5.652344 47.457031 -16.335938 L 35.996094 -16.335938 C 34.371094 -11.921875 30.347656 -9.058594 25.390625 -9.058594 C 19.042969 -9.058594 14.632812 -13.703125 14.632812 -20.359375 C 14.632812 -27.019531 19.042969 -31.664062 25.390625 -31.664062 C 30.035156 -31.664062 33.832031 -29.183594 35.765625 -25.082031 L 47.066406 -25.082031 C 45.210938 -35.144531 36.539062 -41.726562 25.238281 -41.726562 C 12.230469 -41.726562 3.019531 -32.824219 3.019531 -20.359375 C 3.019531 -7.820312 12.152344 1.082031 25.238281 1.082031 Z M 25.238281 1.082031 "/></g></g></g><g fill="#95daff" fill-opacity="1"><g transform="translate(308.401121, 214.038764)"><g><path d="M 5.882812 0 L 17.652344 0 L 17.652344 -21.367188 C 17.652344 -27.792969 21.210938 -31.664062 26.628906 -31.664062 C 31.664062 -31.664062 34.683594 -28.257812 34.683594 -22.296875 L 34.683594 0 L 46.449219 0 L 46.449219 -23.457031 C 46.449219 -34.757812 40.101562 -41.726562 29.574219 -41.726562 C 25.003906 -41.726562 20.746094 -40.332031 17.652344 -37.546875 L 17.652344 -57.285156 L 5.882812 -57.285156 Z M 5.882812 0 "/></g></g></g></svg>